<svg height="512" viewBox="0 0 135.46667 135.46667" width="512" xmlns="http://www.w3.org/2000/svg" xmlns:xlink="http://www.w3.org/1999/xlink"><radialGradient id="a" cx="156.26843" cy="77.468369" gradientTransform="matrix(-.02589983 .19950696 -.3280876 -.04259207 93.926672 9.237703)" gradientUnits="userSpaceOnUse" r="157.59583"><stop offset="0" stop-color="#61a3d3"/><stop offset="1" stop-color="#478cbf"/></radialGradient><radialGradient id="b" cx="162.48592" cy="238.99631" gradientTransform="matrix(.21780793 0 0 1.0600242 31.04848 -170.45767)" gradientUnits="userSpaceOnUse" r="97.239258"><stop offset="0" stop-color="#5ca400"/><stop offset="1" stop-color="#8fff00"/></radialGradient><linearGradient id="c" gradientUnits="userSpaceOnUse" x1="72.1290014705" x2="72.1290014705" xlink:href="#d" y1="92.74014940818" y2="69.19223668601"/><linearGradient id="d"><stop offset="0" stop-color="#add6f5" stop-opacity="0"/><stop offset=".16485021" stop-color="#add6f5"/><stop offset=".824251" stop-color="#add6f5"/><stop offset="1" stop-color="#add6f5" stop-opacity="0"/></linearGradient><linearGradient id="e" gradientUnits="userSpaceOnUse" spreadMethod="pad" x1="59.0833589036" x2="59.0833589036" xlink:href="#d" y1="68.36705017593" y2="92.82888835783"/><g transform="matrix(1.2964608 0 0 1.2964608 -19.33285 -12.323545)"><path d="m57.079965 13.449516c-4.576528 1.017426-9.103972 2.433855-13.348538 4.570263.09707 3.747818.339264 7.338716.830441 10.98641-1.648361 1.056076-3.380918 1.96262-4.920633 3.198771-1.564326 1.203462-3.162185 2.355065-4.57853 3.762561-2.8298-1.871704-5.824145-3.630321-8.909534-5.183146-3.325865 3.579454-6.436349 7.442751-8.976712 11.76569 1.911247 3.091942 3.906662 5.989884 6.061129 8.740036h.05994l1.586449 33.678564c0 15.447195 18.008751 22.872245 42.354521 22.957775h.05994c24.346071-.0854 42.347802-7.51058 42.347802-22.957775l1.59476-33.678564h.0599c2.15483-2.75027 4.14893-5.64839 6.06113-8.740036-2.5395-4.323237-5.65085-8.186534-8.97671-11.76569-3.0845 1.552646-6.08086 3.311174-8.91057 5.183146-1.416017-1.407496-3.010968-2.55907-4.577497-3.762561-1.53918-1.236271-3.273877-2.142814-4.919082-3.198771.489839-3.647694.732395-7.238591.829926-10.98641-4.244855-2.136567-8.772213-3.552926-13.351125-4.570263-1.828109 3.072573-3.49979 6.399266-4.955769 9.652124-1.726553-.288511-3.460932-.395315-5.197615-.415996v-.0021c-.01214 0-.02378.0021-.03411.0021-.01074 0-.02228-.0021-.03307-.0021v.0021c-1.740053.02066-3.473351.127482-5.2002.415996-1.455117-3.25256-3.125439-6.579551-4.956287-9.652124z" fill="url(#a)" stroke-width=".312075"/><path d="m61.757266 89.056269.694192 7.878072c.474416 3.259629 8.290518 3.341859 8.636505-.03256l.518188-7.845517z" fill="#13324a" stroke="#5fa1d1" stroke-linecap="round" stroke-linejoin="round" stroke-width="1.32292"/><path d="m36.877308 51.009888 19.509928 9.061097 2.483092-3.818606 15.607942.06472 3.192538 3.747998 18.374794-8.731598c3.010362-1.622268.45018 13.204412-1.915534 14.821366l-23.406642 14.485951-.603033 11.56471c-.273268 3.374421-6.446556 3.291988-6.82126.03236l-.81588-11.726512-22.768132-14.485951c-3.869114-3.033794-5.438401-16.059075-2.837813-15.015535z" fill="url(#b)"/><path d="m86.448196 56.247935v8.731252l-10.583332 6.746872-.529167 6.085416" fill="none" stroke="#5aa000" stroke-linecap="round" stroke-linejoin="round" stroke-width="1.32292"/><path d="m45.702368 55.321893v8.731252l10.583332 6.746872.529167 6.085416" fill="none" stroke="#5aa000" stroke-linecap="round" stroke-linejoin="round" stroke-width="1.32292"/><path d="m36.612483 51.15109c-.472255-.03786-.768211.485805-.921392 1.333769l.453202.125057 20.968227 9.194269 2.844272-4.101041 13.758334.132292 3.902603 4.299478 19.248438-9.326561.288353-.654739c-.211066-.652752-.579248-.924958-1.142048-.621669l-18.374587 8.731766-3.19257-3.74809-15.607834-.0646-2.483569 3.818372-19.509919-9.060948c-.08127-.03261-.15833-.05149-.23151-.05736z" fill="#4d8900"/><path d="m94.243434 67.553485-22.215027 13.697575-.661459 11.178646" fill="none" stroke="#5fa1d1" stroke-linecap="round" stroke-linejoin="round" stroke-width="1.32292"/><path d="m39.202648 67.339685 22.043986 13.911375.661458 11.178646" fill="none" stroke="#5fa1d1" stroke-linecap="round" stroke-linejoin="round" stroke-width="1.32292"/><path d="m66.906403 23.472918v32.203134" fill="none" stroke="#13324a" stroke-linecap="round" stroke-linejoin="round" stroke-width="2.11667"/><path d="m68.262794 23.543077v32.203135" fill="none" stroke="#5eb1ee" stroke-linecap="round" stroke-linejoin="round" stroke-width=".529167"/><path d="m84.096897 56.567244v-13.423612l7.96161-4.596641c.464591-1.462622 1.055454-5.21286.756409-7.261767" fill="none" stroke="#13324a" stroke-linecap="round" stroke-linejoin="round" stroke-width="1.5875"/><path d="m50.440446 56.567244v-13.423612l-7.96161-4.596641c-.464591-1.462622-1.055454-5.21286-.756409-7.261767" fill="none" stroke="#13324a" stroke-linecap="round" stroke-linejoin="round" stroke-width="1.5875"/><path d="m77.457015 13.449516c-1.828105 3.07257-3.499793 6.39927-4.955769 9.652124-.01357-.0023-.02724-.0024-.04082-.0046l1.717727 3.649906 4.841368-12.011143 9.843004 3.081455s.991438.362673 1.924432.637171c.0043-.146775.01735-.287352.0212-.434599-4.244864-2.136566-8.772229-3.552928-13.351138-4.570264z" fill="#5eb1ee"/><path d="m57.093449 13.402744c1.828105 3.07257 3.499793 6.399269 4.955768 9.652124.01357-.0023.02724-.0024.04083-.0047l-1.717727 3.649906-4.841369-12.011142-9.749459 3.198386s-1.084982.245742-2.017976.520239c-.0043-.146775-.01736-.287351-.0212-.434598 4.244864-2.136566 8.772229-3.552928 13.351138-4.570264z" fill="#5eb1ee"/><path d="m43.759946 18.141977 2.095628-.264583 3.237133 14.227716-4.564061-3.009635z" fill="#30668e"/><path d="m90.780751 18.081791-1.885158-.264584-3.30729 13.923698 4.564062-3.009635z" fill="#30668e"/><path d="m72.403852 23.171916 1.309622 3.695002 12.254308 5.098166 4.069179-2.806332" fill="none" stroke="#13324a" stroke-linecap="round" stroke-linejoin="round" stroke-width="1.32292"/><path d="m62.388004 23.634937-1.309621 3.695002-12.254309 5.098166-4.069181-2.806333" fill="none" stroke="#13324a" stroke-linecap="round" stroke-linejoin="round" stroke-width="1.32292"/><path d="m117.09512 42.593481-2.0483-2.048317-8.84012 10.07988 4.85129.754645z" fill="#30668e"/><path d="m99.316101 36.055654-.656383 1.98122 7.554122 12.555491 4.74852.711016" fill="none" stroke="#13324a" stroke-linecap="round" stroke-linejoin="round" stroke-width="1.32292"/><path d="m17.319723 42.527335 2.0483-2.048317 8.840127 10.07988-4.851296.754645z" fill="#30668e"/><path d="m35.426151 35.989508.656383 1.98122-7.554122 12.555491-4.748523.711016" fill="none" stroke="#13324a" stroke-linecap="round" stroke-linejoin="round" stroke-width="1.32292"/><ellipse cx="49.719772" cy="50.41925" fill="#add6f5" rx="4.259758" ry="3.042708" transform="matrix(.97351841 -.22860863 .22860863 .97351841 0 0)"/><path d="m109.98971 72.18777-16.000888 9.989333-7.408331 23.812497" fill="none" stroke="#13324a" stroke-linecap="round" stroke-linejoin="round" stroke-width="1.32292"/><rect fill="#444" height="8.795157" rx="2.182813" ry="2.198789" transform="matrix(1 0 -.12033138 .99273378 0 0)" width="7.871354" x="86.882065" y="83.311623"/><rect fill="#444" height="8.795157" rx="2.182813" ry="2.198789" transform="matrix(-1 0 .12033138 .99273378 0 0)" width="7.871354" x="-46.765804" y="83.511513"/><g stroke-linecap="round" stroke-linejoin="round"><path d="m110.32044 72.882302-15.604014 9.823967-7.197855 23.181071" fill="none" stroke="#5eb1ee" stroke-width=".529167"/><path d="m94.44731 68.39287-21.722995 13.438831-.661459 11.178645" fill="none" stroke="url(#c)" stroke-width=".264583"/><path d="m39.153523 68.204969 21.482722 13.560586.661459 11.178645" fill="none" stroke="url(#e)" stroke-width=".264583"/><path d="m24.932575 72.055478 16.166253 10.121625 7.408331 23.812497" fill="none" stroke="#13324a" stroke-width="1.32292"/><path d="m24.20497 72.584645 16.166254 10.121624 7.314785 23.251231" fill="none" stroke="#5daee9" stroke-width=".529167"/><path d="m25.128428 87.958661c1.768266 10.78369 13.229644 17.076549 29.457635 19.172989a25.116653 15.668675 24.136746 0 0 -16.607257-15.939594 25.116653 15.668675 24.136746 0 0 -12.850378-3.233395z" fill="#2a2a2a" stroke="#13324a" stroke-width="1.32292"/><path d="m109.40304 87.958661c-1.76827 10.78369-13.22964 17.076549-29.457631 19.172989a15.668675 25.116653 65.863254 0 1 16.607253-15.939594 15.668675 25.116653 65.863254 0 1 12.850378-3.233395z" fill="#2a2a2a" stroke="#13324a" stroke-width="1.32292"/><path d="m84.798478 56.941421v-13.423612l7.961611-4.59664c.464591-1.462622 1.055454-5.21286.756408-7.261768" fill="none" stroke="#5eb1ee" stroke-width=".529167"/><path d="m49.415395 56.941421v-13.423612l-7.96161-4.59664c-.464592-1.462622-1.055454-5.21286-.756409-7.261768" fill="none" stroke="#5eb1ee" stroke-width=".529167"/></g><path d="m57.079965 13.449516c-4.576528 1.017426-9.103972 2.433855-13.348538 4.570263.09707 3.747818.339264 7.338716.830441 10.98641-1.648361 1.056076-3.380918 1.96262-4.920633 3.198771-1.564326 1.203462-3.162185 2.355065-4.57853 3.762561-2.8298-1.871704-5.824145-3.630321-8.909534-5.183146-3.325865 3.579454-6.436349 7.442751-8.976712 11.76569 1.911247 3.091942 3.906662 5.989884 6.061129 8.740036h.05994l1.586449 33.678564c0 15.447195 18.008751 22.872245 42.354521 22.957775h.05994c24.346071-.0854 42.347802-7.51058 42.347802-22.957775l1.59476-33.678564h.0599c2.15483-2.75027 4.14893-5.64839 6.06113-8.740036-2.5395-4.323237-5.65085-8.186534-8.97671-11.76569-3.0845 1.552646-6.08086 3.311174-8.91057 5.183146-1.416017-1.407496-3.010968-2.55907-4.577497-3.762561-1.53918-1.236271-3.273877-2.142814-4.919082-3.198771.489839-3.647694.732395-7.238591.829926-10.98641-4.244855-2.136567-8.772213-3.552926-13.351125-4.570263-1.828109 3.072573-3.49979 6.399266-4.955769 9.652124-1.726553-.288511-3.460932-.395315-5.197615-.415996v-.0021c-.01214 0-.02378.0021-.03411.0021-.01074 0-.02228-.0021-.03307-.0021v.0021c-1.740053.02066-3.473351.127482-5.2002.415996-1.455117-3.25256-3.125439-6.579551-4.956287-9.652124z" fill="none" stroke="#13324a" stroke-width="1.32292"/><path d="m36.877308 51.009888 19.509928 9.061097 2.483092-3.818606 15.607942.06472 3.192538 3.747998 18.374794-8.731598c3.010362-1.622268.45018 13.204412-1.915534 14.821366l-23.406642 14.485951-.603033 11.56471c-.273268 3.374421-6.446556 3.291988-6.82126.03236l-.81588-11.726512-22.768132-14.485951c-3.869114-3.033794-5.438401-16.059075-2.837813-15.015535z" fill="none" stroke="#13324a" stroke-linecap="round" stroke-linejoin="round" stroke-width="1.32292"/></g></svg>
